<svg xmlns="http://www.w3.org/2000/svg" xmlns:xlink="http://www.w3.org/1999/xlink" viewBox="0 0 5900.56 1495.93"><defs><style>.cls-1{fill:#fff;}.cls-2{fill:url(#Градієнт_без_назви_3);}</style><radialGradient id="Градієнт_без_назви_3" cx="728.02" cy="1109.13" r="1050.55" gradientUnits="userSpaceOnUse"><stop offset="0" stop-color="#2baae2"/><stop offset="0.2" stop-color="#2b9dd5"/><stop offset="0.57" stop-color="#2a7bb1"/><stop offset="1" stop-color="#284c80"/></radialGradient></defs><title>Ресурс 38</title><g id="Шар_2" data-name="Шар 2"><g id="Шар_1-2" data-name="Шар 1"><circle class="cls-1" cx="747.97" cy="747.97" r="747.97"/><path class="cls-2" d="M748,54.86c-384.12,0-695.51,311.38-695.51,695.5a692.23,692.23,0,0,0,124.86,397.71q15.87,22.76,33.49,44.12c9.54-110.42,98.54-198.13,209.54-205.66q7.69-.53,15.5-.52a224.78,224.78,0,0,1,136.87,46.18,226,226,0,0,0-136.49-90.11c49-110,159.3-186.74,287.53-186.74a313.7,313.7,0,0,1,228.14,98,139.14,139.14,0,0,0-70.16,120.88,141,141,0,0,0,1.1,17.55,137.42,137.42,0,0,1,11.35-40,139.2,139.2,0,0,1,264.81,40c.08.65.16,1.3.23,2a171.91,171.91,0,0,1,29.84,10.71,173.84,173.84,0,0,1,98,185.42q16.56-20.27,31.58-41.78a692.27,692.27,0,0,0,124.87-397.72C1443.47,366.24,1132.08,54.86,748,54.86ZM249.58,634.77c0-64.13-17.26-81.41-81.41-81.41,64.15,0,81.41-17.26,81.41-81.41,0,64.15,17.28,81.41,81.41,81.41C266.86,553.36,249.58,570.64,249.58,634.77Zm91.13,201c0-38.25-10.3-48.54-48.55-48.54,38.25,0,48.55-10.3,48.55-48.55,0,38.25,10.28,48.55,48.54,48.55C351,787.27,340.71,797.56,340.71,835.81ZM951,401.84c-63.91,22.07-129.68,23.69-196.38,12.24-11.09-1.9-22-4.73-33-7.13,53.41,35.2,113.69,46,177.4,46.4a16.42,16.42,0,0,1-1.75,2.74c-1.61,1.43-3.26,2.84-5,4.15C863,483,828.64,489.8,791.69,487.41c-44.21-2.84-85.15-16.73-124.2-36.25-13.47-6.71-26.38-14.49-41.14-22.67,29.42,47.62,75.6,67.2,129.26,78.42a195.35,195.35,0,0,1-51.59,18c-32.36,6.55-63.43,3.91-91.11-15.73-23.26-16.49-37-39.12-45.08-65.11-.67-2.12-1.44-4.23-2.57-7.56-1.22,2.27-1.85,3.2-2.24,4.22-9.77,25.63-.35,55.66,22.61,72.24,4.36,3.14,8.71,6.28,13,9.5,17.22,12.91,22.7,29.84,16.2,49.74-.65,2-1,4-1.45,6l2,.67c3-4.32,5.91-8.66,9-13.27,11.45,9.31,22.52,18.3,34.08,27.66.93-2.43,1.53-4.14,2.25-5.81,3.86-9,9-10.88,18-6.16,5.63,2.94,10.85,6.65,16.16,10.14,14.53,9.51,28.89,19.23,46.84,22.35,3.64.62,7.28,3,10.16,5.45,2,1.67,2.74,4.74,4,7.13-11-1.29-20.65-3-30.35-3.41s-19.34.43-29,.72c-.1.85-.2,1.7-.32,2.54,11.42,13,24.66,23.62,43.4,25,21.35,1.62,39.28,9.87,55.74,22.71,14.4,11.23,29.66,21.47,44.77,31.84,8.4,5.77,15.07,5.24,22.9-.89,1.91-1.48,3.66-3.15,5.66-4.51,6.6-4.49,11.63-3.49,16.22,3.08,9.61,13.79,19.56,27.36,28.73,41.4a153.78,153.78,0,0,1,13.39,25.2c2.09,5,1.65,11,2.37,16.54l-2.6.65c-2.21-2.13-4.56-4.14-6.58-6.41a137.9,137.9,0,0,0-53.43-37.56C830.35,729,793.8,715,757.43,700.5c-29.63-11.82-61.52-18.48-88.65-36.14-10.22-6.68-21-12.69-31.73-18.54-2.59-1.4-6.81-2.22-9.36-1.23-27.12,10.48-53.93,21.65-81.06,32.07a447,447,0,0,1-43.15,14.21c-6.88,1.87-14.67,1.84-21.94,1.19-8.49-.77-12.42-6.4-11.5-14.45a48.41,48.41,0,0,1,2-8.9c14.4-45.56,39.49-85,74.5-118.67a70.35,70.35,0,0,0,5.21-6.33c-.48-.42-1-.82-1.43-1.24-5.15,3.06-10.29,6.1-15,8.87C525,541.12,514.82,532.12,506,522c-6.36-7.33-10.72-16.22-16.25-24.24-1.23-1.79-3.47-3.79-5.52-4.14-18.87-3.22-27.83-15.06-22.32-32.64,3.4-10.85,8-22.06,15.06-31,19-24,7.73-55.32-5.05-74.75-2.49-3.79-7-6.71-11.17-9.09-11.07-6.32-11.92-7.91-6.88-19.05,2-4.37,2.89-8.58-1-12.45-4.11-4.14-1.77-6.68,2.12-8.87,7.21-4,11.58-10,15.69-17a53,53,0,0,1,17-17.74c17.89-11.13,39.29-7.66,56.86,5.8,28.35,21.69,58.9,37.87,97.15,28.83-1.68,11-12.24,21.09-27.08,22.46-12.81,1.18-25.9-.28-39-.58,14.69,8.24,29.93,14,47.7,9.65C608.9,357.81,565,347,565,347c2.77,4.66,19.15,10.29,27.67,14-16.9,8.5-32.49,3.33-48.24-3.92,2.26,3,3.54,7.46,8.25,10.84-13.62,5.56-21.82,3.4-29.32-1.41-.4,8.67,18.12,20.22,26.63,14.75,11.52-7.4,24.14-8.38,37.22-9.55,30.72-2.72,52.61-17,63.48-45.05,1.37-3.51,2.87-7,3.94-10.59,4.22-14.2,7.78-28.61,12.52-42.64,7.46-22.05,23.58-33.92,47.5-34.48A139.93,139.93,0,0,1,747,241.87c22.68,4.89,44.81,12.37,67.62,16.33q149.7,26.06,287.65-33.61c2.53-1.1,5.12-2.1,9.26-3.8-1.6,3.45-2.17,5.51-3.39,7.12-10.85,14.38-20.4,29.94-33,42.76-32.36,32.9-74,51.11-119.25,62.53-57.5,14.53-116.24,17-175.54,13.48-2.44-.14-4.89-.15-7.35-.22.69,1.89,1.42,2.52,2.26,2.94,3.75,1.83,7.48,3.75,11.32,5.41,34.24,14.74,70.32,18.9,107.29,17.69,42.72-1.4,84.06-10.16,125.2-19.93,4.11-1,8.25-1.8,12.37-2.69a9.07,9.07,0,0,1-2.75,4.83C1006.81,376.41,980.45,391.66,951,401.84ZM1078.65,586.4c0-38.25-10.3-48.55-48.55-48.55,38.25,0,48.55-10.3,48.55-48.55,0,38.25,10.29,48.55,48.54,48.55C1088.94,537.85,1078.65,548.15,1078.65,586.4Zm122.77,217.34c0-70.21-18.9-89.11-89.09-89.11,70.19,0,89.09-18.9,89.09-89.09,0,70.19,18.9,89.09,89.11,89.09C1220.32,714.63,1201.42,733.53,1201.42,803.74ZM589,615.14c-7-7-10.42-2.22-14.19.76.18.77-8,7.4-19.69,19C559.21,634,583.52,616.37,589,615.14Z"/><path class="cls-1" d="M1891.78,751.22q-45.87,0-76.46-8.64t-49-22.27q-18.45-13.63-26.26-30.59a79.68,79.68,0,0,1-7.81-33.57q0-17.61,6.48-29.59A56.87,56.87,0,0,1,1756,607a71.09,71.09,0,0,1,24.6-11,122.75,122.75,0,0,1,28.76-3.32q0,29.25,7,51.36t19.28,36.9A79,79,0,0,0,1865,703.19a92.49,92.49,0,0,0,37.4,7.48q19.93,0,35.56-5.65a78.87,78.87,0,0,0,26.6-15.63A65.82,65.82,0,0,0,1981.2,666a74.36,74.36,0,0,0,5.65-29.09q0-17.28-7-30.75t-21.11-24.93q-14.13-11.48-35.57-21.94t-50-22.44q-35.57-14.62-60-30.08t-39.39-33.41a112.33,112.33,0,0,1-21.44-38.89,154.67,154.67,0,0,1-6.48-45.88q0-31.24,12.63-56.51a129,129,0,0,1,34.9-43.21q22.27-18,52.86-27.6t66.48-9.64q37.56,0,64.82,6.15t45,16.79q17.78,10.65,26.42,25.1a59.57,59.57,0,0,1,8.65,31.08A49,49,0,0,1,2052.5,353a49.74,49.74,0,0,1-15.62,17.95q-10.47,7.65-26.26,12t-36.73,4.32a136.33,136.33,0,0,0-3.83-30.75,102.83,102.83,0,0,0-12.46-30.58,75.71,75.71,0,0,0-22.44-23.44q-13.8-9.3-33.41-9.3a83.5,83.5,0,0,0-25.93,4,60.57,60.57,0,0,0-21.44,12,56.78,56.78,0,0,0-14.46,19.78q-5.33,11.81-5.32,27.09a77.07,77.07,0,0,0,4.66,26.93q4.65,12.64,17.12,24.77t34.24,24.26q21.77,12.13,56.34,26.1,34.9,14.3,59.5,29.25t40.39,32.08a107.51,107.51,0,0,1,22.94,37.56q7.14,20.45,7.15,45.38,0,32.91-13,60.33a132.79,132.79,0,0,1-37.23,47q-24.27,19.62-58.34,30.58T1891.78,751.22Z"/><path class="cls-1" d="M2406.37,382.24q11-11.64,18.45-21.11a131.49,131.49,0,0,0,12-17.62,71.11,71.11,0,0,0,6.48-15.46,54.16,54.16,0,0,0,2-14.29q0-11.29-8.64-15.63T2407,293.81V258.58h184.49v35.23a80.38,80.38,0,0,0-26.42,4.32,108,108,0,0,0-24.44,12.3,181.6,181.6,0,0,0-23.6,18.95q-11.64,11-23.6,24.27l-89.75,98.73,126.65,201.11a207.85,207.85,0,0,0,19.11,26.43,98.15,98.15,0,0,0,18.45,16.79,64,64,0,0,0,18.95,9,78.22,78.22,0,0,0,20.94,2.66h2.66v36.23H2573.9q-25.92,0-45.54-1.66a259.25,259.25,0,0,1-34.4-5,117.52,117.52,0,0,1-25.43-8.48,82.9,82.9,0,0,1-18.62-12.14,97.73,97.73,0,0,1-14.46-15.79q-6.48-8.79-12.8-19.44l-91.74-156.57-30.25,23.6v115q0,14.63,2.82,23.27t7.48,13.29a22.55,22.55,0,0,0,11.3,6.15,63.31,63.31,0,0,0,14,1.5h28.58v36.23h-235V708.34h28.59A65.93,65.93,0,0,0,2172,707a24.4,24.4,0,0,0,11.14-5.49q4.82-4.14,7.47-12.29t2.66-21.45V336q0-13.63-2.66-21.77t-7.47-12.47A25.18,25.18,0,0,0,2172,296a58.94,58.94,0,0,0-13.63-1.49h-28.59v-35.9h235v35.9h-28.58a63.31,63.31,0,0,0-14,1.49,22.71,22.71,0,0,0-11.3,6.15q-4.65,4.67-7.48,13.3t-2.82,23.27v158.9Z"/><path class="cls-1" d="M2722.16,744.57V708.34h31.92a111.23,111.23,0,0,0,15.45-1,25.56,25.56,0,0,0,12.47-5.15q5.31-4.16,8.48-12.47t3.16-22.6V572.38l-126-241.67a181.81,181.81,0,0,0-9.48-16.95,44.36,44.36,0,0,0-9.8-11.14,36,36,0,0,0-12.14-6.15,60.5,60.5,0,0,0-16.78-2h-9v-35.9h228v35.9h-11.63q-20.62,0-30.75,8.31T2786,325.06a63.32,63.32,0,0,0,3.16,18.78,154.8,154.8,0,0,0,7.14,18.78l50.53,100.06q10.63,21.61,17.45,38.23t12.47,32.58q7-18,16.12-39.06t20.45-44.05l39.55-81.44q7.32-15,9.48-25.1a81.25,81.25,0,0,0,2.16-15.79q0-17.61-11.14-25.6t-33.74-8H2904v-35.9h178.18v35.9h-13a42.13,42.13,0,0,0-14.79,2.32,31,31,0,0,0-11.64,8.31,90,90,0,0,0-11.3,16.29q-5.82,10.31-13.79,26.26L2902,573v93.08q0,15,3,23.27t8.14,12.63a23.41,23.41,0,0,0,12,5.32,101.58,101.58,0,0,0,14.79,1h33.57v36.23Z"/><path class="cls-1" d="M3438.86,751.22q-45.87,0-76.45-8.64t-49-22.27q-18.45-13.63-26.26-30.59a79.68,79.68,0,0,1-7.81-33.57q0-17.61,6.48-29.59A56.9,56.9,0,0,1,3303.07,607a71,71,0,0,1,24.6-11,122.6,122.6,0,0,1,28.75-3.32q0,29.25,7,51.36t19.28,36.9a79.06,79.06,0,0,0,29.42,22.27,92.49,92.49,0,0,0,37.4,7.48q20,0,35.57-5.65a78.92,78.92,0,0,0,26.59-15.63A65.7,65.7,0,0,0,3528.28,666a74.36,74.36,0,0,0,5.66-29.09q0-17.28-7-30.75t-21.1-24.93q-14.14-11.48-35.57-21.94t-50-22.44q-35.58-14.62-60-30.08t-39.4-33.41a112.33,112.33,0,0,1-21.44-38.89,154.67,154.67,0,0,1-6.48-45.88q0-31.24,12.63-56.51a129,129,0,0,1,34.91-43.21q22.26-18,52.85-27.6t66.49-9.64q37.56,0,64.82,6.15t45,16.79q17.77,10.65,26.43,25.1a59.55,59.55,0,0,1,8.64,31.08,49.12,49.12,0,0,1-5.15,22.27A49.87,49.87,0,0,1,3584,370.93q-10.47,7.65-26.26,12T3521,387.22a136.86,136.86,0,0,0-3.82-30.75,102.85,102.85,0,0,0-12.47-30.58,75.49,75.49,0,0,0-22.44-23.44q-13.78-9.3-33.4-9.3a83.45,83.45,0,0,0-25.93,4,60.57,60.57,0,0,0-21.44,12A56.78,56.78,0,0,0,3387,328.88q-5.33,11.81-5.32,27.09a77.07,77.07,0,0,0,4.65,26.93q4.65,12.64,17.12,24.77t34.24,24.26q21.77,12.13,56.34,26.1,34.9,14.3,59.51,29.25t40.39,32.08a107.48,107.48,0,0,1,22.93,37.56q7.15,20.45,7.15,45.38,0,32.91-13,60.33a132.93,132.93,0,0,1-37.24,47q-24.26,19.62-58.33,30.58T3438.86,751.22Z"/><path class="cls-1" d="M3920.54,664.13q0,14.63,2.66,23.27t7.48,13.29a23.46,23.46,0,0,0,11.14,6.15,58.78,58.78,0,0,0,13.62,1.5H3984v36.23H3749V708.34h28.59a60.48,60.48,0,0,0,14-1.5,22.53,22.53,0,0,0,11-6.15q4.65-4.65,7.31-13.29t2.66-23.27v-364H3758q-15.3,0-25.6,3.32a43.3,43.3,0,0,0-16.79,9.48,37.82,37.82,0,0,0-9.64,15.12,93.74,93.74,0,0,0-4.48,20.28l-4.66,42.22H3651l3.65-132h424.17l3.33,132h-45.55l-5-42.22a94.93,94.93,0,0,0-4.49-20.28,37.82,37.82,0,0,0-9.64-15.12,43.3,43.3,0,0,0-16.79-9.48q-10.3-3.31-25.59-3.32h-54.52Z"/><path class="cls-1" d="M4586.38,294.48h-29.26a57.28,57.28,0,0,0-13.29,1.49,23.68,23.68,0,0,0-11.14,6.15q-4.81,4.67-7.48,13.3t-2.66,23.27v265.6q0,34.25-9.8,61.5A113.61,113.61,0,0,1,4482.16,712q-20.77,18.94-53,29.08t-76.79,10.14q-44.55,0-79.61-8.47t-59.34-27.1q-24.27-18.61-37.06-48t-12.8-71.31V336q0-13.63-2.83-21.77t-7.64-12.47a25.18,25.18,0,0,0-11-5.82,55.36,55.36,0,0,0-13.13-1.49h-29.26v-35.9H4334.4v35.9h-28.58a57.37,57.37,0,0,0-13.3,1.49,23.68,23.68,0,0,0-11.14,6.15q-4.81,4.67-7.48,13.3t-2.66,23.27V601.63q0,28.59,7.15,48t20.44,31.25a79.13,79.13,0,0,0,31.92,17q18.6,5.16,41.88,5.15,22.6,0,40.89-5.82a78.33,78.33,0,0,0,31.08-18.11q12.8-12.3,19.78-31.25t7-44.88V336q0-13.63-2.66-21.77t-7.48-12.47a25.13,25.13,0,0,0-11.14-5.82,57.34,57.34,0,0,0-13.29-1.49H4408.2v-35.9h178.18Z"/><path class="cls-1" d="M5082,492.6q0,55.85-15.29,102.22T5021,674.43q-30.42,33.26-75.46,51.69T4841,744.57H4616.3V708.34h28.58a60.42,60.42,0,0,0,14-1.5,22.56,22.56,0,0,0,11-6.15q4.65-4.65,7.31-13.29t2.66-23.27V336q0-13.63-2.66-21.77t-7.48-12.47a25.18,25.18,0,0,0-11.14-5.82,58.88,58.88,0,0,0-13.63-1.49H4616.3v-35.9H4841q56.51,0,101.22,14.79t75.8,44.21q31.06,29.42,47.53,73.3T5082,492.6Zm-115,0q0-97.39-35.74-144.94t-105.21-47.53h-38.89V702.36h38.23q34.9,0,61.5-14.46t44.37-41.72q17.79-27.25,26.76-66T4967,492.6Z"/><path class="cls-1" d="M5138.53,744.57V708.34h28.59a60.54,60.54,0,0,0,14-1.5,22.58,22.58,0,0,0,11-6.15q4.65-4.65,7.31-13.29t2.66-23.27V339q0-14.62-2.66-23.27t-7.31-13.3a22.74,22.74,0,0,0-11-6.15,61.12,61.12,0,0,0-14-1.49h-28.59V258.58h235v36.23H5345a61.71,61.71,0,0,0-13.8,1.49,22.65,22.65,0,0,0-11.13,6.15q-4.66,4.67-7.31,13.3T5310.06,339V664.13q0,14.63,2.66,23.27t7.31,13.29a22.5,22.5,0,0,0,11.13,6.15,61.13,61.13,0,0,0,13.8,1.5h28.59v36.23Z"/><path class="cls-1" d="M5890.79,500.91q0,56.18-15.12,102.39t-44.55,79.11q-29.41,32.91-72.13,50.86t-98.23,18q-58.17,0-101.56-18t-72-50.86q-28.6-32.91-42.89-79.28t-14.29-102.89q0-56.5,14.29-102.55t43-78.61q28.76-32.58,72.14-50.37t101.88-17.78q55.18,0,97.9,17.78t72,50.53Q5860.54,352,5875.67,398T5890.79,500.91Zm-346.38,0q0,48.87,6.32,87.09T5571,652.66q14,26.43,36.06,40.39t53.69,14q31.9,0,54-14t35.73-40.39q13.64-26.43,19.78-64.66t6.15-87.09q0-48.87-6.15-87.09t-19.78-64.66q-13.64-26.43-35.57-40.22t-53.52-13.8q-31.91,0-54.18,13.8T5571,349.16q-14,26.43-20.28,64.66T5544.41,500.91Z"/><path class="cls-1" d="M1897.37,812.88,1933,795.59l-62,265.77q6.43-10.17,13-19.32a88.2,88.2,0,0,1,14.41-15.77,61.67,61.67,0,0,1,18-10.51,66.31,66.31,0,0,1,23.73-3.9q20.34,0,32.21,14.75t11.86,41.19a205,205,0,0,1-7.12,53.56,170.68,170.68,0,0,1-20.17,47.12,114,114,0,0,1-31.35,33.39,69.18,69.18,0,0,1-40.34,12.71q-26.45,0-43.39-13.9l-34.92,141.71h-18.31l35.6-169.5a130.55,130.55,0,0,1-11,13.73,95.53,95.53,0,0,1-15.42,13.56,87.14,87.14,0,0,1-19.5,10.34,63.75,63.75,0,0,1-22.88,4.06q-20,0-31.69-15.42t-11.7-47a197.83,197.83,0,0,1,7-52.71,158.18,158.18,0,0,1,19.66-44.75,105.11,105.11,0,0,1,30.68-31.19,71.74,71.74,0,0,1,40-11.7q17.3,0,29.16,7.8t16.94,23.05Zm-51.19,260.34q-1-27.45-9.83-40.17t-24.07-12.71a41,41,0,0,0-22.37,6.44,68.31,68.31,0,0,0-18.14,17.12,118.85,118.85,0,0,0-13.9,24.58,207,207,0,0,0-9.83,28.81,254.14,254.14,0,0,0-5.93,29.83,203.76,203.76,0,0,0-2,27.46q0,24.4,9.15,35.26t21.7,10.84a35.82,35.82,0,0,0,18.3-4.91,64.67,64.67,0,0,0,15.42-12.54,94.06,94.06,0,0,0,12.38-17.29,176,176,0,0,0,9.32-19.16,184.08,184.08,0,0,0,6.44-18.13c1.7-5.76,3-10.45,3.9-14.07Zm1.36,95.94q1,10.85,4.57,17.8a34.82,34.82,0,0,0,9,11.35,31,31,0,0,0,12,6.1,54.66,54.66,0,0,0,13.73,1.7q14.91,0,27.63-10.51t21.86-29q9.17-18.48,14.41-43.23a256.13,256.13,0,0,0,5.26-53.22q0-23-8.65-33.73t-20.17-10.68a39.91,39.91,0,0,0-20.51,5.26,64.12,64.12,0,0,0-16.27,13.73,93.52,93.52,0,0,0-12.71,19.32,216.61,216.61,0,0,0-9.49,21.86,219.94,219.94,0,0,0-6.78,21.53q-2.71,10.51-4.41,18Z"/><path class="cls-1" d="M2012,1142.72q0-30.51,16.44-60.85t42.55-49.33q26.1-19,53.22-19,28.47,0,45.93,18.81t17.46,48.65q0,32.55-16.1,63t-42.38,50q-26.27,19.5-53.05,19.5-28.82,0-46.44-19.5T2012,1142.72ZM2157,1068.14q0-20.34-10-33.56t-25.59-13.22q-14.25,0-27.29,9.15t-23.9,26.78q-12.21,20.34-20.17,47.46t-8,48.14q0,25.08,9.83,38.64t28.14,13.56q29.49,0,51.86-41a204.09,204.09,0,0,0,18.31-47.12Q2157,1090.85,2157,1068.14Z"/><path class="cls-1" d="M2352,1204.08l-22.37,7.11,26.78-138,2.37-11.86a83.08,83.08,0,0,0,2-16.27q0-14.92-11.87-14.92-11.19,0-27.12,15.09t-33.56,43.56a382.77,382.77,0,0,0-19.83,35.25,364.32,364.32,0,0,0-15.25,36.11q-7,19.15-13.39,43.9l-21,7.11,34.91-187.8,32.55-13.9-29.5,123.06q22.71-52.54,52-86.28t52.71-33.73q25.43,0,25.43,28.82,0,9.84-5.09,34.91l-11.18,50.51q32.88-63,55.59-89t45.09-25.94q12.54,0,19.66,7.46t7.12,21.36q0,11.19-6.78,38.64l-10.51,41.7-3.39,13.22q-4.76,21-4.74,31.19,0,10.86,3.72,17.46t9.5,6.61q10.85,0,33.9-25.09l5.08,4.75-3,3.73q-19.32,22.71-28.65,30.68t-17.12,8q-10.5,0-17.79-10.68t-7.29-26.61q0-9.83,4.41-32.2l12.54-70.17,2-12.21a87.22,87.22,0,0,0,2-16.27,13.32,13.32,0,0,0-3.73-9.83q-3.73-3.72-10.17-3.73-7.47,0-16.44,6.27t-19.16,19.16q-10.17,12.88-22.71,33.9a457.93,457.93,0,0,0-27.46,53.73Q2361.79,1167.8,2352,1204.08Z"/><path class="cls-1" d="M2543.83,1142.72q0-30.51,16.45-60.85t42.54-49.33q26.1-19,53.22-19,28.47,0,45.94,18.81t17.45,48.65q0,32.55-16.1,63t-42.37,50q-26.28,19.5-53.06,19.5-28.82,0-46.44-19.5T2543.83,1142.72Zm145.09-74.58q0-20.34-10-33.56t-25.59-13.22q-14.23,0-27.29,9.15t-23.9,26.78q-12.21,20.34-20.17,47.46t-8,48.14q0,25.08,9.83,38.64t28.14,13.56q29.49,0,51.87-41a204.53,204.53,0,0,0,18.3-47.12Q2688.92,1090.85,2688.92,1068.14Z"/><path class="cls-1" d="M2889.61,1157q-20.68,29.16-40.17,42.55a74.72,74.72,0,0,1-43.22,13.39q-26.11,0-42.55-18.31t-16.44-47.46q0-30.51,15.93-62t40.85-52.21q24.91-20.67,48-20.68,15.58,0,25.09,8.65t9.49,23.22q0,13.22-10,25.25t-21.53,12a12.65,12.65,0,0,1-9.15-4.07q22-9.82,22-36.61,0-9.5-4.91-14.75t-13.05-5.25q-12.55,0-25.26,10.17t-23.9,28.3a165.6,165.6,0,0,0-17.46,38.65,141.37,141.37,0,0,0-6.27,41.53q0,25.08,11.87,40.68t31.18,15.59q16.6,0,32.21-10.51t32.54-32.2Z"/><path class="cls-1" d="M3049.61,1204.08l-22.37,7.11,26.78-138,2.37-11.86a83.08,83.08,0,0,0,2-16.27q0-14.92-11.87-14.92-11.17,0-27.12,15.09t-33.56,43.56a382.77,382.77,0,0,0-19.83,35.25,364.32,364.32,0,0,0-15.25,36.11q-7,19.15-13.39,43.9l-21,7.11,34.92-187.8,32.54-13.9-29.49,123.06q22.69-52.54,52-86.28t52.72-33.73q25.42,0,25.42,28.82,0,9.84-5.08,34.91l-11.19,50.51q32.88-63,55.59-89t45.09-25.94q12.54,0,19.66,7.46t7.12,21.36q0,11.19-6.78,38.64l-10.51,41.7-3.39,13.22q-4.76,21-4.74,31.19,0,10.86,3.73,17.46t9.49,6.61q10.84,0,33.9-25.09l5.08,4.75-3.05,3.73q-19.32,22.71-28.64,30.68t-17.12,8q-10.52,0-17.8-10.68t-7.29-26.61q0-9.83,4.41-32.2l12.54-70.17,2-12.21a87.22,87.22,0,0,0,2-16.27,13.32,13.32,0,0,0-3.73-9.83q-3.73-3.72-10.17-3.73-7.45,0-16.44,6.27t-19.15,19.16a322.73,322.73,0,0,0-22.72,33.9,459.48,459.48,0,0,0-27.46,53.73Q3059.45,1167.8,3049.61,1204.08Z"/><path class="cls-1" d="M3211.31,1328.15l16.62-22.38q19.65,21,44.4,21,26.1,0,42-20.68t26.1-67.8l15.6-70.17q-37.31,43.74-67.46,43.73-17.64,0-27.63-10.85t-10-29.15a131,131,0,0,1,3.05-26.78l23-121.7,32.88-13.9-32.88,136.62q-4.07,16.61-4.07,24.74,0,11.54,6.95,18.82t18.48,7.29q12.53,0,27.62-11t33.73-33l29.16-129.5,31.86-13.9-49.49,199.33q-8.82,35.92-16.78,56.27t-18.47,33.9q-33.24,42.72-81,42.72Q3227.26,1341.71,3211.31,1328.15Z"/><path class="cls-1" d="M3494.71,1213.23q-20.34,0-32.37-14.75t-12-38.13a172.45,172.45,0,0,1,8.47-53.57,162.84,162.84,0,0,1,23.39-46.44,124.21,124.21,0,0,1,34.92-32.71,80.34,80.34,0,0,1,43-12.37q25.76,0,40,14.23,1-5.76,1.7-14.4t1.18-17.8q.51-9.15.68-17.63t.17-13.9q0-7.78-.85-19.32a178.62,178.62,0,0,0-3.56-24.24,162.46,162.46,0,0,0-7.62-25.25A86.93,86.93,0,0,0,3579,874.4a62.84,62.84,0,0,0-19.66-16.27q-11.68-6.27-28-6.27a79.79,79.79,0,0,0-10,.85,81.4,81.4,0,0,0-13.72,3.22,104.06,104.06,0,0,0-15.77,6.61,99.92,99.92,0,0,0-16.44,10.68l-4.07-6.45A84.67,84.67,0,0,1,3489,853.89a131,131,0,0,1,20-9,115.44,115.44,0,0,1,19.49-5.08,100.08,100.08,0,0,1,15.77-1.53q26.77,0,43.56,10.34a72.56,72.56,0,0,1,26.1,27.46,116.44,116.44,0,0,1,12.54,39,307.54,307.54,0,0,1,3.22,44.92,353.3,353.3,0,0,1-5.42,61.53,403.51,403.51,0,0,1-14.92,58.81,355.78,355.78,0,0,1-22.37,52.55,233.6,233.6,0,0,1-28,42.2q-15.07,17.81-31.52,28T3494.71,1213.23ZM3594,1048.48a32.2,32.2,0,0,0-13.56-17.46,39.56,39.56,0,0,0-21.7-6.27,45.05,45.05,0,0,0-23.05,6.1,75,75,0,0,0-19.32,16.44,115.86,115.86,0,0,0-15.59,24.07,203.19,203.19,0,0,0-11.53,28.64,199.73,199.73,0,0,0-7.12,30.34,193.47,193.47,0,0,0-2.37,29.33q0,17.63,7.12,28.3t22.37,10.68q10.85,0,21.53-8a94,94,0,0,0,20-21,208.06,208.06,0,0,0,17.29-29.33,290,290,0,0,0,13.73-33,269.27,269.27,0,0,0,9-32.2A133.55,133.55,0,0,0,3594,1048.48Z"/><path class="cls-1" d="M3704.55,1009.49,3674.72,1121q-7.45,27.46-7.46,44.07,0,10.86,3.73,17.63t9.83,6.78q10.5,0,33.56-25.09l5.43,4.75-3.39,3.73q-19.34,22.71-28.48,30.68t-17,8q-10.51,0-17.8-10.68t-7.28-26.61q0-10.17,4.06-32.2l21.36-118.65Zm9.83-132.88q8.82,0,14.24,5.42t5.42,14.24a19.35,19.35,0,0,1-5.76,14.24,18.94,18.94,0,0,1-13.9,5.76q-7.8,0-13.9-6.1t-6.1-13.9a18.91,18.91,0,0,1,5.77-13.9A19.31,19.31,0,0,1,3714.38,876.61Z"/><path class="cls-1" d="M3903.88,1015.26q-5.43,18.65-11.69,39.66t-12.72,45.76q-12.88,49.83-12.88,64.75,0,10.86,3.73,17.46t9.83,6.61q10.5,0,33.56-25.09l5.43,4.75-3.39,3.73q-9.84,11.52-16.78,19.15a142.93,142.93,0,0,1-11.7,11.7q-9.49,7.79-16.95,7.79-10.52,0-17.8-10.51t-7.29-26.78q0-10.85,4.07-32.2l3.73-17.29a39.85,39.85,0,0,1-13.39,4.75q-7.62,1.35-14.41,2-2.37,1.7-6.78,8.31t-10.84,15.59q-6.45,9-14.24,18.81a169.7,169.7,0,0,1-16.61,18.14,99.5,99.5,0,0,1-18.14,13.73,37.14,37.14,0,0,1-18.81,5.42,59.78,59.78,0,0,1-6.95-.34,23.59,23.59,0,0,1-5.6-1.35l8.14-27.46a53.2,53.2,0,0,0,8.48,1.52,88.6,88.6,0,0,0,9.49.51,38.69,38.69,0,0,0,18.64-4.74,61.43,61.43,0,0,0,15.93-12.38,77.61,77.61,0,0,0,12.21-17.45,85.31,85.31,0,0,0,7.46-20.34,50.18,50.18,0,0,1-18-7.29,48,48,0,0,1-11.7-11.19,39.84,39.84,0,0,1-6.44-13.22,51.69,51.69,0,0,1-1.86-13.39q0-19,7.29-31.7a61.7,61.7,0,0,1,19-20.67,79.73,79.73,0,0,1,26.44-11.53,140.05,140.05,0,0,1,29.66-3.9Zm-31.53,11.52H3857.1a70.14,70.14,0,0,0-26.61,4.75,56.48,56.48,0,0,0-19.49,12.71,54.34,54.34,0,0,0-11.87,18.3,58.36,58.36,0,0,0-4.07,21.53,53.21,53.21,0,0,0,1.87,14.24,32.62,32.62,0,0,0,6.1,12,29.57,29.57,0,0,0,10.85,8.31q6.6,3,16.44,3,4.39,0,11.86-.68a30,30,0,0,0,12.21-3.39Z"/><path class="cls-1" d="M4075.41,1060.34q0-9.15,6.1-18a60.42,60.42,0,0,1,16.62-15.76,95.3,95.3,0,0,1,24.91-11.35,106.73,106.73,0,0,1,31.36-4.41q13.89,0,23.05,4.74a40.25,40.25,0,0,1,14.41,12,44.52,44.52,0,0,1,7.29,15.93,70.85,70.85,0,0,1,2,16.1q0,20.68-7.46,36.95a109.22,109.22,0,0,1-19.66,29.33,164.27,164.27,0,0,1-28,23.73q-15.77,10.68-32,20.17a36.86,36.86,0,0,1,19.15,8.64,57.4,57.4,0,0,1,13.22,17.12,82.81,82.81,0,0,1,7.63,22.54,132.22,132.22,0,0,1,2.37,24.92q4.41-.69,8.31-1c2.59-.23,5.36-.45,8.3-.68s6.16-.33,9.66-.33h12.72l-1.7,7.45q-6.78,0-16.95.68a192.63,192.63,0,0,0-20,2.37,245,245,0,0,1-12,49.33,229.86,229.86,0,0,1-19.83,41.69,193.21,193.21,0,0,1-25.6,33.4,183.75,183.75,0,0,1-28.81,24.57,125.54,125.54,0,0,1-29.5,15.09,84.92,84.92,0,0,1-27.62,5.08q-22,0-33.4-11.52t-11.35-29.83a84.22,84.22,0,0,1,14.24-47.12,150.58,150.58,0,0,1,37-38.48,236,236,0,0,1,50.68-28.31,296.54,296.54,0,0,1,55.42-17,161.67,161.67,0,0,0-1.86-24.4,71.08,71.08,0,0,0-7-22,43.45,43.45,0,0,0-14.24-16.1q-9.15-6.27-23.73-7.29v-2.71a165.27,165.27,0,0,0,15.43-6.27,150.27,150.27,0,0,0,19.49-10.85,165.3,165.3,0,0,0,20.34-15.76,117.67,117.67,0,0,0,18.3-21,112.12,112.12,0,0,0,13.22-26.27,94.69,94.69,0,0,0,5.09-31.7q0-23.05-7.12-32.88t-22.71-9.83a42,42,0,0,0-19.66,4.57,50.44,50.44,0,0,0-15.6,12.72,69.35,69.35,0,0,0-11.19,19.49,94.82,94.82,0,0,0-5.76,24.91c-3.16-.67-6.22-3-9.15-7S4075.41,1066.9,4075.41,1060.34Zm49.83,197a229.7,229.7,0,0,0-51.69,16.78,182.91,182.91,0,0,0-43.22,27.46,130.47,130.47,0,0,0-29.67,36.27,89.47,89.47,0,0,0-11,43.56q0,15.93,8.81,23.9a29.86,29.86,0,0,0,20.68,8q18.65,0,36.78-11.86t32.88-32.71q14.74-20.85,24.58-49.33A232.35,232.35,0,0,0,4125.24,1257.3Z"/><path class="cls-1" d="M4387,1023.39l32.2-13.9-29.49,125.77q8.48-15.26,17.8-29.66t19-27.12q9.66-12.72,19-23.39a235.85,235.85,0,0,1,17.79-18.48q7.8-7.11,14.07-12a72.31,72.31,0,0,1,12.88-8.14,58.71,58.71,0,0,1,14.24-4.74,140.59,140.59,0,0,1,18.14-2.21l-6.44,31.53a51.65,51.65,0,0,0-13.22-3c-3.62-.22-6.78-.34-9.5-.34a35.64,35.64,0,0,0-14.4,3.56,76.23,76.23,0,0,0-16.28,10.17,130.32,130.32,0,0,0-16.27,15.59,137.69,137.69,0,0,0-14.74,20.17q5.42,13.23,12.37,30.85t14.58,33.56a209.68,209.68,0,0,0,15.08,27q7.45,11,13.9,11,14.91,0,34.58-20.68l2.71-3,4.41,5.08q-34.24,41.37-49.84,41.36a28.14,28.14,0,0,1-10.5-2,22.61,22.61,0,0,1-9.16-7.12,84.94,84.94,0,0,1-10.85-17q-5.07-10.17-10.5-22.71t-11.19-26.62q-5.78-14.05-12.54-29a298.43,298.43,0,0,0-24.24,41.7q-11.37,23.38-17.12,55.25l-21.7,6.1Z"/><path class="cls-1" d="M4527.63,1342.39l64.07-319,32.54-13.9-22.37,97.29q25.08-50.51,47.29-72.71t48.65-22.21q20.34,0,32.2,14.92t11.87,41q0,26.45-10.68,54.24a173.38,173.38,0,0,1-30,50.51q-34.92,42-77,42-26.43,0-43.39-13.9l-34.91,141.71Zm58.31-164.08q14.24,27.81,40,27.8,37.29,0,65.09-60.68,22.71-48.81,22.71-82,0-18-6.78-27.79t-19.32-9.84q-20.34,0-42.72,26.78a277.29,277.29,0,0,0-36.27,59q-5.76,12.88-10.68,27.46t-9.32,29.83Z"/><path class="cls-1" d="M4838.83,1009.49,4806,1140.68q-4.41,17.64-4.41,29.83,0,11.88,7.46,19t19.32,7.12q28.82,0,60-47.12l1.36-2c.45-2.25.79-4.07,1-5.42l21.35-118.65,33.22-13.9L4915.44,1121q-7.45,27.46-7.46,44.07,0,10.86,3.73,17.63t9.83,6.78q10.52,0,33.56-25.09l5.43,4.75-3.39,3.73q-19.32,22.71-28.48,30.68t-16.95,8q-10.5,0-17.79-10.68t-7.29-26.61q0-5.09.34-9.49-35.27,46.79-69.84,46.78-17.28,0-27.62-10t-10.34-26.61q0-12.87,3.73-31.53l23.05-120Z"/><path class="cls-1" d="M5164.6,1014.24q-5.42,18.65-12,40.17t-13,46.27q-6.45,24.75-10.51,40.85t-4.07,23.9q0,10.86,3.73,17.46t9.83,6.61q10.5,0,33.56-25.09l5.42,4.75-3.38,3.73q-9.84,11.52-16.78,19.15a142.93,142.93,0,0,1-11.7,11.7q-9.49,7.79-16.95,7.79-10.52,0-17.8-10.51t-7.29-26.78q0-10.85,4.07-32.2l23.05-115.26-21.35,4.41a26.78,26.78,0,0,0-12.21,5.93q-5.42,4.58-11.86,15.59a287.09,287.09,0,0,0-14.75,30.34q-8.31,19.34-20.85,49.84-4.41,10.5-10.67,23.56a164.13,164.13,0,0,1-14.41,24.4,97,97,0,0,1-17.8,19.16q-9.66,7.8-20.17,7.79-3.37,0-7.46-.33a43.41,43.41,0,0,1-7.79-1.36l9.49-36.27a24.77,24.77,0,0,0,16.61,5.76q10.5,0,21.19-9.83t20.51-32.21q5.76-12.87,11.52-28.13t10.51-29.16q4.74-13.89,7.63-24.91t3.22-15.76l-36.27,2.71,7.45-11.19Z"/><path class="cls-1" d="M5387.66,1007.46l-31.86,124.07q-5.09,20.34-5.09,31.87a34,34,0,0,0,4.41,17.62q4.4,7.47,10.85,7.46,9.82,0,32.54-24.07l4.75,4.75-3.73,4.41q-18,20.67-27.63,29t-16.78,8.3q-10.86,0-18.82-11.35a44.6,44.6,0,0,1-8-26.27q0-10.85,8.13-49.16l2.72-12.88a251.79,251.79,0,0,1-33.56,55.93q-35.27,44.76-67.47,44.75-19.32,0-30.5-13.9t-11.19-37.29q0-31.86,18.14-66.78t45.08-57.46q27-22.53,52.38-22.54,26.78,0,40,19.66l3.73-12.88Zm-39,43.39q-4.07-12.88-13.73-20.17a35.89,35.89,0,0,0-22.21-7.29q-14.91,0-31.52,13.73t-30.51,38.14a221.31,221.31,0,0,0-18.14,42.71q-7.29,23.38-7.29,38.65,0,17.28,6.61,27.12t18.82,9.83q15.59,0,32.54-14.58t33.56-41.7a156.45,156.45,0,0,0,15.93-31.18q5.76-15.6,12.89-43.4Z"/><path class="cls-1" d="M5637.84,1022.37l36.61-11.18L5647.67,1117q-5.09,20-6.95,31.36a115.73,115.73,0,0,0-1.86,16.78q0,10.86,3.73,17.46t9.83,6.61q10.5,0,33.56-25.09l5.42,4.75-3.39,3.73q-9.84,11.52-16.78,19.15a141.49,141.49,0,0,1-11.69,11.7q-9.49,7.78-16.95,7.79-10.52,0-17.8-10.51t-7.29-26.78a158,158,0,0,1,2.2-22.2q2.21-14.4,5.77-32.71t7.62-39q4.08-20.67,7.8-41L5538.51,1207.8H5528l-12.21-174.24q-12.89,46.11-24.41,79.16t-22.54,54.07q-11,21-21.53,31t-21,10q-3.39,0-8.65-.33a46,46,0,0,1-9-1.36l9.49-34.24a24.71,24.71,0,0,0,9.32,4.24,45.41,45.41,0,0,0,11.36,1.52,18.29,18.29,0,0,0,12-4.74,57.51,57.51,0,0,0,10.68-12.54,124.61,124.61,0,0,0,9.66-18.31q4.59-10.5,8.31-22,8.8-27.11,12.2-45.76t3.39-31.53q0-3.72-.34-8.13a59.48,59.48,0,0,0-1.69-9.83l46.78-13.9,9.15,162Z"/><path class="cls-1" d="M5778.86,1009.49,5746,1140.68q-4.41,17.64-4.41,29.83,0,11.88,7.46,19t19.32,7.12q28.82,0,60-47.12l1.35-2c.45-2.25.79-4.07,1-5.42l21.35-118.65,33.23-13.9L5855.48,1121q-7.47,27.46-7.46,44.07,0,10.86,3.73,17.63t9.83,6.78q10.5,0,33.56-25.09l5.42,4.75-3.39,3.73q-19.32,22.71-28.47,30.68t-16.95,8q-10.52,0-17.8-10.68t-7.29-26.61q0-5.09.34-9.49-35.27,46.79-69.83,46.78-17.3,0-27.63-10t-10.34-26.61q0-12.87,3.73-31.53l23-120Z"/></g></g></svg>