<svg xmlns="http://www.w3.org/2000/svg" viewBox="0 0 5954.58 1383.5"><defs><style>.cls-1{fill:#fff;}</style></defs><title>logo all white</title><g id="Шар_2" data-name="Шар 2"><g id="Шар_1-2" data-name="Шар 1"><path class="cls-1" d="M232.7,475.3C141,475.3,116.34,500,116.34,591.64,116.34,500,91.68,475.3,0,475.3c91.68,0,116.34-24.68,116.34-116.36C116.34,450.62,141,475.3,232.7,475.3Z"/><path class="cls-1" d="M177.2,809.58c54.66,0,69.38-14.72,69.38-69.38,0,54.66,14.7,69.38,69.37,69.38-54.67,0-69.37,14.71-69.37,69.37C246.58,824.29,231.86,809.58,177.2,809.58Z"/><path class="cls-1" d="M1370.55,453.12c-54.67,0-69.36,14.73-69.36,69.4,0-54.67-14.72-69.4-69.4-69.4,54.68,0,69.4-14.72,69.4-69.38C1301.19,438.4,1315.88,453.12,1370.55,453.12Z"/><path class="cls-1" d="M1334.9,5.45Q1138.06,91,923.82,53.48c-32.58-5.66-64.22-16.35-96.64-23.34A198.56,198.56,0,0,0,781,25.94c-34.19.79-57.21,17.75-67.89,49.28-6.77,20-11.86,40.63-17.89,60.94-1.53,5.13-3.67,10.11-5.63,15.13-15.53,40.09-46.82,60.48-90.72,64.37-18.68,1.67-36.71,3.08-53.18,13.65-12.17,7.83-38.64-8.68-38.07-21.07,10.72,6.87,22.44,9.95,41.9,2-6.73-4.82-8.56-11.26-11.77-15.48,22.49,10.35,44.77,17.75,68.92,5.61-12.16-5.31-35.57-13.34-39.54-20,0,0,62.77,15.47,83.45-14-25.38,6.23-47.18-2-68.17-13.79,18.73.43,37.44,2.53,55.73.83,21.23-1.95,36.3-16.34,38.7-32.09C622.15,134.27,578.49,111.15,538,80.15c-25.11-19.22-55.7-24.2-81.25-8.28a75.91,75.91,0,0,0-24.32,25.34c-5.86,10-12.12,18.52-22.43,24.3-5.55,3.13-8.9,6.74-3,12.66,5.52,5.54,4.22,11.56,1.39,17.81-7.22,15.92-6,18.17,9.83,27.22,5.93,3.39,12.41,7.56,16,13,18.25,27.78,34.31,72.51,7.2,106.82-10.08,12.75-16.66,28.76-21.52,44.26-7.88,25.14,4.93,42.05,31.89,46.66,3,.5,6.14,3.36,7.91,5.92,7.89,11.45,14.12,24.17,23.21,34.64,12.57,14.46,27.18,27.33,42,41.93l21.41-12.67c.67.6,1.36,1.17,2,1.75-2.47,3.05-4.62,6.33-7.43,9.05C490.77,518.7,454.92,575,434.35,640.15a69,69,0,0,0-2.94,12.72c-1.32,11.5,4.3,19.53,16.45,20.63,10.37.93,21.52,1,31.35-1.68a640.39,640.39,0,0,0,61.65-20.31c38.77-14.89,77.09-30.86,115.85-45.85,3.64-1.4,9.69-.23,13.39,1.77,15.37,8.35,30.72,16.94,45.33,26.49,38.77,25.25,84.34,34.77,126.7,51.66,52,20.73,104.2,40.77,156.31,61.15,30.13,11.82,55.33,30,76.35,53.69,2.89,3.25,6.26,6.1,9.41,9.16l3.73-.93c-1-7.91-.42-16.43-3.41-23.65a220.39,220.39,0,0,0-19.13-36c-13.09-20.06-27.31-39.47-41.06-59.18-6.56-9.37-13.75-10.8-23.17-4.38-2.87,1.92-5.37,4.31-8.08,6.44-11.19,8.76-20.74,9.52-32.75,1.26-21.59-14.82-43.4-29.44-64-45.51-23.54-18.34-49.16-30.12-79.67-32.44-26.79-2-45.69-17.19-62-35.8.17-1.18.32-2.41.46-3.63,13.85-.4,27.71-1.61,41.47-1s27.68,3,43.38,4.86c-1.81-3.42-2.86-7.8-5.72-10.19-4.13-3.43-9.33-6.89-14.54-7.77-25.65-4.46-46.17-18.35-66.92-32-7.59-5-15.06-10.27-23.11-14.48-13-6.76-20.28-4-25.79,8.81-1,2.38-1.88,4.81-3.22,8.3-16.51-13.39-32.33-26.22-48.7-39.54-4.49,6.58-8.71,12.79-12.94,19l-2.78-.95c.67-2.86,1.14-5.8,2.07-8.59,9.29-28.44,1.46-52.64-23.14-71.09-6.13-4.6-12.36-9.08-18.59-13.57-32.81-23.7-46.26-66.63-32.31-103.24a66,66,0,0,1,3.2-6.05c1.63,4.78,2.73,7.78,3.67,10.81,11.6,37.15,31.2,69.48,64.42,93.06,39.58,28.05,84,31.83,130.22,22.48a279.62,279.62,0,0,0,73.73-25.69c-76.7-16-142.69-44-184.74-112.09,21.09,11.69,39.54,22.82,58.79,32.41C769.41,357.13,827.91,377,891.09,381c52.81,3.42,101.86-6.28,143.69-38.81,2.46-1.89,4.83-3.89,7.11-6,.72-.64,1.08-1.61,2.51-3.91-91.05-.57-177.2-16-253.53-66.3,15.74,3.43,31.34,7.46,47.18,10.18,95.32,16.38,189.31,14.06,280.64-17.48,42.15-14.56,79.82-36.34,111-67.37a12.94,12.94,0,0,0,4-6.89c-5.91,1.26-11.82,2.46-17.7,3.85-58.78,14-117.87,26.48-178.92,28.48-52.83,1.71-104.4-4.22-153.33-25.3-5.49-2.35-10.8-5.1-16.18-7.73-1.2-.58-2.24-1.5-3.23-4.2,3.52.1,7,.13,10.51.32,84.76,5.08,168.69,1.5,250.88-19.25,64.64-16.33,124.16-42.36,170.4-89.37,18-18.32,31.69-40.56,47.21-61.11C1345,7.88,1345.85,5,1348.15,0,1342.24,2.43,1338.53,3.88,1334.9,5.45ZM581.16,564.68c5.39-4.28,10.34-11,20.28-1.11-7.84,1.78-42.59,26.94-48.42,28.26C569.77,575.25,581.42,565.78,581.16,564.68Z"/><path class="cls-1" d="M1602.19,1344.9a246.24,246.24,0,0,1-2.59,35.84l-2.26,2.76H61.41c15.73-155.57,142-278.52,299-289.17,7.34-.5,14.74-.73,22.16-.73a321.13,321.13,0,0,1,195.6,66,322.88,322.88,0,0,0-195.06-128.78c70-157.24,227.66-266.88,410.91-266.88A448.24,448.24,0,0,1,1120,904a198.82,198.82,0,0,0-100.27,172.75,201.52,201.52,0,0,0,1.57,25.08,195.74,195.74,0,0,1,16.24-57.19A198.68,198.68,0,0,1,1218.68,928c101.36,0,185,75.84,197.33,173.83.11.93.24,1.86.33,2.79a246.3,246.3,0,0,1,42.64,15.32C1543.57,1159.5,1602.19,1245.36,1602.19,1344.9Z"/><path class="cls-1" d="M1607.21,705.78c-102.86,0-130.57,27.71-130.57,130.55,0-102.84-27.68-130.55-130.56-130.55,102.88,0,130.56-27.7,130.56-130.57C1476.64,678.08,1504.35,705.78,1607.21,705.78Z"/><path class="cls-1" d="M1945.8,615.41q-45.87,0-76.46-8.64t-49-22.28q-18.45-13.62-26.26-30.58a79.68,79.68,0,0,1-7.81-33.57q0-17.63,6.48-29.59A56.71,56.71,0,0,1,1810,471.14a70.82,70.82,0,0,1,24.6-11,122.07,122.07,0,0,1,28.75-3.33q0,29.27,7,51.36t19.28,36.9A78.87,78.87,0,0,0,1919,567.37a92.33,92.33,0,0,0,37.4,7.48q19.95,0,35.57-5.65a78.74,78.74,0,0,0,26.59-15.62,65.77,65.77,0,0,0,16.62-23.44,74.31,74.31,0,0,0,5.65-29.08q0-17.3-7-30.75t-21.11-24.94q-14.13-11.46-35.56-21.93t-50-22.44q-35.58-14.62-60-30.09t-39.39-33.41a112.24,112.24,0,0,1-21.44-38.89,154.56,154.56,0,0,1-6.48-45.87q0-31.25,12.63-56.51A129.1,129.1,0,0,1,1847.4,153q22.27-18,52.86-27.59t66.48-9.64q37.56,0,64.83,6.15t45,16.79q17.78,10.64,26.43,25.09a59.59,59.59,0,0,1,8.64,31.09,49.19,49.19,0,0,1-5.15,22.27,50,50,0,0,1-15.63,18q-10.47,7.65-26.26,12t-36.73,4.32a136.79,136.79,0,0,0-3.82-30.75,102.85,102.85,0,0,0-12.47-30.58,75.6,75.6,0,0,0-22.44-23.44q-13.8-9.3-33.41-9.31a83.5,83.5,0,0,0-25.93,4,60.67,60.67,0,0,0-21.44,12,56.93,56.93,0,0,0-14.46,19.78q-5.31,11.81-5.31,27.09a77.11,77.11,0,0,0,4.65,26.93q4.65,12.63,17.12,24.76t34.24,24.27q21.77,12.13,56.34,26.09,34.9,14.3,59.51,29.26t40.39,32.07a107.67,107.67,0,0,1,22.93,37.57q7.16,20.44,7.15,45.37,0,32.91-13,60.34a133.1,133.1,0,0,1-37.24,47q-24.27,19.6-58.34,30.58T1945.8,615.41Z"/><path class="cls-1" d="M2460.39,246.42q11-11.62,18.45-21.11a130.22,130.22,0,0,0,12-17.62,70.62,70.62,0,0,0,6.49-15.45,54.21,54.21,0,0,0,2-14.3q0-11.3-8.64-15.62T2461.05,158V122.76h184.5V158a80.14,80.14,0,0,0-26.43,4.32,107.31,107.31,0,0,0-24.43,12.3,180.17,180.17,0,0,0-23.61,18.95q-11.64,11-23.6,24.26l-89.75,98.73,126.65,201.12a209.39,209.39,0,0,0,19.11,26.42,98.15,98.15,0,0,0,18.45,16.79,64.13,64.13,0,0,0,18.95,9,78.68,78.68,0,0,0,20.94,2.66h2.66v36.23h-36.56q-25.93,0-45.54-1.66a257.41,257.41,0,0,1-34.41-5,117.17,117.17,0,0,1-25.43-8.48,83.1,83.1,0,0,1-18.62-12.13,98.65,98.65,0,0,1-14.46-15.79,232.67,232.67,0,0,1-12.79-19.45l-91.75-156.57-30.25,23.61v115q0,14.64,2.82,23.27t7.48,13.3a22.62,22.62,0,0,0,11.31,6.15,63.22,63.22,0,0,0,14,1.5h28.59v36.23h-235V572.53h28.59A66.62,66.62,0,0,0,2226,571.2a24.6,24.6,0,0,0,11.14-5.49q4.82-4.15,7.48-12.3t2.66-21.44V200.21q0-13.62-2.66-21.77T2237.17,166a25.18,25.18,0,0,0-11.14-5.82,58.93,58.93,0,0,0-13.63-1.5h-28.59v-35.9h235v35.9h-28.59a63.22,63.22,0,0,0-14,1.5,22.7,22.7,0,0,0-11.31,6.15q-4.65,4.65-7.48,13.3t-2.82,23.26v158.9Z"/><path class="cls-1" d="M2776.19,608.76V572.53h31.91a112.94,112.94,0,0,0,15.46-1,25.66,25.66,0,0,0,12.46-5.15q5.31-4.15,8.48-12.47t3.16-22.6V436.57l-126-241.67a183.55,183.55,0,0,0-9.47-17,44.7,44.7,0,0,0-9.81-11.13,35.91,35.91,0,0,0-12.13-6.15,60.59,60.59,0,0,0-16.79-2h-9v-35.9h228v35.9H2880.9q-20.61,0-30.75,8.31T2840,189.24a63.33,63.33,0,0,0,3.16,18.79,153.15,153.15,0,0,0,7.15,18.78l50.52,100.06q10.63,21.6,17.46,38.23t12.46,32.57q7-17.94,16.12-39.06t20.45-44l39.56-81.45q7.31-15,9.47-25.09a81.25,81.25,0,0,0,2.16-15.79q0-17.62-11.14-25.6t-33.74-8H2958v-35.9H3136.2v35.9h-13a41.89,41.89,0,0,0-14.79,2.33,30.64,30.64,0,0,0-11.63,8.31,89.16,89.16,0,0,0-11.31,16.29q-5.82,10.31-13.79,26.26L2956,437.23v93.08q0,15,3,23.27t8.14,12.63a23.58,23.58,0,0,0,12,5.32,103,103,0,0,0,14.79,1h33.58v36.23Z"/><path class="cls-1" d="M3492.88,615.41q-45.87,0-76.45-8.64t-49-22.28q-18.45-13.62-26.27-30.58a79.83,79.83,0,0,1-7.81-33.57q0-17.63,6.49-29.59a56.78,56.78,0,0,1,17.28-19.61,70.82,70.82,0,0,1,24.6-11,122.07,122.07,0,0,1,28.75-3.33q0,29.27,7,51.36t19.28,36.9a78.8,78.8,0,0,0,29.42,22.27,92.28,92.28,0,0,0,37.39,7.48q20,0,35.57-5.65a78.64,78.64,0,0,0,26.59-15.62,65.8,65.8,0,0,0,16.63-23.44,74.49,74.49,0,0,0,5.65-29.08q0-17.3-7-30.75t-21.11-24.94q-14.13-11.46-35.57-21.93t-50-22.44q-35.58-14.62-60-30.09t-39.39-33.41a112.27,112.27,0,0,1-21.45-38.89,154.56,154.56,0,0,1-6.48-45.87q0-31.25,12.63-56.51A129.13,129.13,0,0,1,3394.49,153q22.26-18,52.85-27.59t66.49-9.64q37.56,0,64.82,6.15t45,16.79q17.79,10.64,26.43,25.09a59.59,59.59,0,0,1,8.64,31.09,49.19,49.19,0,0,1-5.15,22.27,49.92,49.92,0,0,1-15.62,18q-10.47,7.65-26.26,12T3575,251.41a136.22,136.22,0,0,0-3.82-30.75,102.85,102.85,0,0,0-12.47-30.58,75.57,75.57,0,0,0-22.43-23.44q-13.8-9.3-33.41-9.31a83.5,83.5,0,0,0-25.93,4,60.59,60.59,0,0,0-21.44,12A56.68,56.68,0,0,0,3441,193.07q-5.33,11.81-5.32,27.09a77.34,77.34,0,0,0,4.65,26.93q4.65,12.63,17.12,24.76t34.24,24.27q21.77,12.13,56.35,26.09,34.91,14.3,59.5,29.26T3648,383.54a107.7,107.7,0,0,1,22.94,37.57q7.14,20.44,7.14,45.37,0,32.91-13,60.34a133.07,133.07,0,0,1-37.23,47q-24.27,19.6-58.34,30.58T3492.88,615.41Z"/><path class="cls-1" d="M3974.56,528.31q0,14.64,2.66,23.27t7.48,13.3a23.55,23.55,0,0,0,11.14,6.15,58.81,58.81,0,0,0,13.63,1.5h28.58v36.23H3803V572.53h28.59a60.42,60.42,0,0,0,14-1.5,22.57,22.57,0,0,0,11-6.15q4.65-4.65,7.32-13.3t2.65-23.27v-364H3812q-15.3,0-25.6,3.33a43.36,43.36,0,0,0-16.79,9.47,37.86,37.86,0,0,0-9.64,15.13,94.24,94.24,0,0,0-4.48,20.27l-4.66,42.22H3705l3.66-132h424.16l3.33,132h-45.54l-5-42.22a94.23,94.23,0,0,0-4.49-20.27,37.86,37.86,0,0,0-9.64-15.13,43.32,43.32,0,0,0-16.78-9.47q-10.32-3.31-25.6-3.33h-54.52Z"/><path class="cls-1" d="M4640.4,158.66h-29.25a57.37,57.37,0,0,0-13.3,1.5,23.68,23.68,0,0,0-11.14,6.15q-4.81,4.65-7.48,13.3t-2.65,23.26V468.48q0,34.25-9.81,61.5a113.59,113.59,0,0,1-30.58,46.2q-20.79,18.95-53,29.09t-76.79,10.14q-44.55,0-79.62-8.48t-59.34-27.09q-24.27-18.62-37.06-48t-12.8-71.3V200.21q0-13.62-2.82-21.77T4207.09,166a25.18,25.18,0,0,0-11-5.82,55.3,55.3,0,0,0-13.13-1.5h-29.25v-35.9h234.69v35.9h-28.59a57.37,57.37,0,0,0-13.3,1.5,23.68,23.68,0,0,0-11.14,6.15q-4.82,4.65-7.47,13.3t-2.67,23.26v263q0,28.59,7.15,48t20.45,31.25a78.85,78.85,0,0,0,31.91,16.95q18.61,5.16,41.88,5.16,22.61,0,40.89-5.82a78.39,78.39,0,0,0,31.08-18.12Q4511.41,531,4518.4,512t7-44.87V200.21q0-13.62-2.66-21.77T4515.24,166a25.15,25.15,0,0,0-11.13-5.82,57.49,57.49,0,0,0-13.3-1.5h-28.59v-35.9H4640.4Z"/><path class="cls-1" d="M5136,356.78q0,55.86-15.29,102.22T5075,538.62q-30.42,33.24-75.46,51.69T4895,608.76H4670.32V572.53h28.59a60.54,60.54,0,0,0,14-1.5,22.66,22.66,0,0,0,11-6.15q4.65-4.65,7.31-13.3t2.66-23.27V200.21q0-13.62-2.66-21.77T4723.67,166a25.13,25.13,0,0,0-11.14-5.82,58.84,58.84,0,0,0-13.62-1.5h-28.59v-35.9H4895q56.52,0,101.23,14.79t75.79,44.22q31.08,29.41,47.53,73.29T5136,356.78Zm-115,0q0-97.39-35.73-144.93t-105.22-47.54h-38.89V566.54h38.23q34.91,0,61.5-14.46t44.38-41.72q17.78-27.25,26.76-66T5021,356.78Z"/><path class="cls-1" d="M5192.55,608.76V572.53h28.59a60.48,60.48,0,0,0,14-1.5,22.61,22.61,0,0,0,11-6.15q4.65-4.65,7.31-13.3t2.66-23.27V203.21q0-14.62-2.66-23.27t-7.31-13.3a22.69,22.69,0,0,0-11-6.15,60.48,60.48,0,0,0-14-1.5h-28.59V122.76h235V159H5399a61,61,0,0,0-13.79,1.5,22.68,22.68,0,0,0-11.14,6.15q-4.67,4.67-7.31,13.3t-2.66,23.27v325.1q0,14.64,2.66,23.27t7.31,13.3a22.61,22.61,0,0,0,11.14,6.15,61,61,0,0,0,13.79,1.5h28.59v36.23Z"/><path class="cls-1" d="M5944.82,365.1q0,56.17-15.13,102.38t-44.54,79.12q-29.43,32.91-72.14,50.86t-98.23,17.95q-58.17,0-101.55-17.95t-72-50.86q-28.59-32.91-42.88-79.29t-14.3-102.88q0-56.51,14.3-102.55t43-78.62q28.76-32.56,72.14-50.36t101.89-17.78q55.17,0,97.89,17.78t72,50.53q29.25,32.74,44.38,78.78T5944.82,365.1Zm-346.39,0q0,48.86,6.32,87.09T5625,516.85q14,26.42,36.06,40.38t53.69,14q31.92,0,54-14t35.73-40.38q13.64-26.43,19.78-64.66t6.15-87.09q0-48.87-6.15-87.1t-19.78-64.65q-13.64-26.43-35.56-40.23t-53.52-13.79q-31.92,0-54.19,13.79T5625,213.35q-14,26.42-20.28,64.65T5598.43,365.1Z"/><path class="cls-1" d="M1951.39,677.06l35.6-17.29-62,265.77q6.43-10.17,13-19.32a88.13,88.13,0,0,1,14.41-15.76,61.64,61.64,0,0,1,18-10.51q10.17-3.9,23.73-3.9,20.34,0,32.2,14.75T2038.18,932a205.43,205.43,0,0,1-7.12,53.57,171.55,171.55,0,0,1-20.17,47.12,114.41,114.41,0,0,1-31.36,33.39,69.21,69.21,0,0,1-40.34,12.71q-26.45,0-43.39-13.9l-34.92,141.7h-18.3l35.59-169.5a128.53,128.53,0,0,1-11,13.73,95.1,95.1,0,0,1-15.42,13.56,86.47,86.47,0,0,1-19.49,10.34,63.81,63.81,0,0,1-22.89,4.07q-20,0-31.69-15.42T1766,1016.4a198,198,0,0,1,7-52.72,158.31,158.31,0,0,1,19.66-44.75,105,105,0,0,1,30.68-31.18,71.74,71.74,0,0,1,40-11.7q17.3,0,29.16,7.8t16.95,23ZM1900.2,937.41q-1-27.46-9.83-40.17t-24.07-12.71a41,41,0,0,0-22.37,6.44,68.15,68.15,0,0,0-18.14,17.12,118.74,118.74,0,0,0-13.89,24.57,204.57,204.57,0,0,0-9.83,28.82,251.76,251.76,0,0,0-5.94,29.83,205.41,205.41,0,0,0-2,27.46q0,24.4,9.15,35.25t21.7,10.85a35.92,35.92,0,0,0,18.3-4.91,65,65,0,0,0,15.43-12.55,93.69,93.69,0,0,0,12.37-17.29,175.9,175.9,0,0,0,9.32-19.15,183.31,183.31,0,0,0,6.44-18.14q2.55-8.64,3.9-14.06Zm1.36,95.93q1,10.86,4.58,17.8a34.7,34.7,0,0,0,9,11.36,31.13,31.13,0,0,0,12,6.1,55.12,55.12,0,0,0,13.73,1.69q14.92,0,27.63-10.5t21.87-29q9.15-18.46,14.4-43.22a255.52,255.52,0,0,0,5.26-53.22q0-23.05-8.65-33.73T1981.22,890a39.9,39.9,0,0,0-20.51,5.25,64.53,64.53,0,0,0-16.27,13.73,93.6,93.6,0,0,0-12.71,19.33,215.63,215.63,0,0,0-9.49,21.86,222.69,222.69,0,0,0-6.78,21.53c-1.81,7-3.28,13-4.41,18Z"/><path class="cls-1" d="M2066,1006.9q0-30.51,16.44-60.85T2125,896.73q26.1-19,53.22-19,28.47,0,45.93,18.81t17.46,48.65q0,32.53-16.1,63t-42.38,50q-26.27,19.5-53.05,19.49-28.82,0-46.44-19.49T2066,1006.9Zm145.09-74.58q0-20.34-10-33.56t-25.59-13.22q-14.23,0-27.29,9.16t-23.9,26.78q-12.21,20.34-20.17,47.46t-8,48.13q0,25.09,9.83,38.65t28.14,13.56q29.49,0,51.87-41a204.71,204.71,0,0,0,18.3-47.12Q2211.06,955,2211.06,932.32Z"/><path class="cls-1" d="M2406,1068.26l-22.37,7.12,26.78-138,2.37-11.87a83,83,0,0,0,2-16.27q0-14.91-11.87-14.91-11.17,0-27.12,15.08T2342.25,953a384.19,384.19,0,0,0-19.83,35.26,364.12,364.12,0,0,0-15.25,36.1q-7,19.16-13.39,43.9l-21,7.12,34.92-187.8,32.54-13.9-29.49,123.05q22.71-52.53,52-86.27t52.72-33.73q25.42,0,25.42,28.81,0,9.84-5.08,34.92L2424.63,991q32.88-63,55.59-89t45.09-25.93q12.54,0,19.66,7.46t7.12,21.36q0,11.18-6.78,38.64l-10.51,41.7-3.39,13.22q-4.74,21-4.74,31.19,0,10.85,3.73,17.45t9.49,6.61q10.84,0,33.9-25.08l5.08,4.74-3,3.73q-19.32,22.73-28.64,30.68t-17.12,8q-10.51,0-17.8-10.68t-7.29-26.61q0-9.83,4.41-32.2l12.54-70.18,2-12.2a87.22,87.22,0,0,0,2-16.27,13.32,13.32,0,0,0-3.73-9.83q-3.74-3.74-10.17-3.73-7.46,0-16.44,6.27t-19.15,19.15a322.73,322.73,0,0,0-22.72,33.9,459.48,459.48,0,0,0-27.46,53.73Q2415.82,1032,2406,1068.26Z"/><path class="cls-1" d="M2597.86,1006.9q0-30.51,16.44-60.85t42.54-49.32q26.1-19,53.22-19,28.49,0,45.94,18.81t17.46,48.65q0,32.53-16.11,63t-42.37,50q-26.28,19.5-53.05,19.49-28.83,0-46.45-19.49T2597.86,1006.9ZM2743,932.32q0-20.34-10-33.56t-25.59-13.22q-14.23,0-27.29,9.16t-23.9,26.78Q2644,941.82,2636,968.94t-8,48.13q0,25.09,9.83,38.65t28.13,13.56q29.51,0,51.87-41a205.18,205.18,0,0,0,18.31-47.12Q2742.93,955,2743,932.32Z"/><path class="cls-1" d="M2943.63,1021.14q-20.68,29.16-40.17,42.54a74.65,74.65,0,0,1-43.22,13.39q-26.11,0-42.55-18.3t-16.44-47.46q0-30.51,15.93-62t40.85-52.2q24.91-20.67,48-20.68,15.59,0,25.09,8.64t9.49,23.23q0,13.22-10,25.25t-21.53,12a12.64,12.64,0,0,1-9.15-4.06q22-9.84,22-36.61,0-9.5-4.91-14.75T2904,884.86q-12.55,0-25.26,10.17t-23.9,28.31A165.2,165.2,0,0,0,2837.36,962a140.94,140.94,0,0,0-6.28,41.52q0,25.1,11.87,40.68t31.19,15.6q16.61,0,32.2-10.51t32.54-32.21Z"/><path class="cls-1" d="M3103.64,1068.26l-22.38,7.12,26.78-138,2.38-11.87a83.64,83.64,0,0,0,2-16.27q0-14.91-11.86-14.91-11.19,0-27.12,15.08T3039.91,953a382,382,0,0,0-19.84,35.26,364.12,364.12,0,0,0-15.25,36.1q-7,19.16-13.39,43.9l-21,7.12,34.92-187.8,32.54-13.9-29.49,123.05q22.71-52.53,52-86.27t52.72-33.73q25.42,0,25.42,28.81,0,9.84-5.08,34.92L3122.28,991q32.88-63,55.6-89T3223,876.05q12.54,0,19.66,7.46t7.12,21.36q0,11.18-6.78,38.64l-10.51,41.7-3.39,13.22q-4.74,21-4.74,31.19,0,10.85,3.73,17.45t9.49,6.61q10.85,0,33.9-25.08l5.08,4.74-3.05,3.73q-19.32,22.73-28.64,30.68t-17.12,8q-10.52,0-17.8-10.68t-7.29-26.61q0-9.83,4.41-32.2l12.54-70.18,2-12.2a87.92,87.92,0,0,0,2-16.27,13.28,13.28,0,0,0-3.73-9.83q-3.73-3.74-10.17-3.73-7.45,0-16.44,6.27t-19.15,19.15a322.73,322.73,0,0,0-22.72,33.9,457.75,457.75,0,0,0-27.45,53.73Q3113.46,1032,3103.64,1068.26Z"/><path class="cls-1" d="M3265.34,1192.33,3282,1170q19.66,21,44.41,21,26.1,0,42-20.68t26.1-67.8l15.6-70.17q-37.31,43.73-67.46,43.73-17.64,0-27.63-10.85t-10-29.15a131.75,131.75,0,0,1,3.05-26.78l23-121.7,32.88-13.9-32.88,136.61Q3327,1026.91,3327,1035q0,11.54,6.95,18.81t18.48,7.29q12.54,0,27.63-11t33.73-33L3443,887.58l31.87-13.9L3425.34,1073q-8.82,35.92-16.78,56.27t-18.47,33.9q-33.23,42.71-81,42.71Q3281.27,1205.89,3265.34,1192.33Z"/><path class="cls-1" d="M3548.74,1077.41q-20.34,0-32.38-14.74t-12-38.14A172.68,172.68,0,0,1,3512.8,971a163.1,163.1,0,0,1,23.39-46.44,124.53,124.53,0,0,1,34.92-32.72,80.43,80.43,0,0,1,43-12.37q25.77,0,40,14.24,1-5.76,1.7-14.41t1.19-17.8q.49-9.15.67-17.62t.17-13.9q0-7.8-.84-19.33a181.45,181.45,0,0,0-3.56-24.23,162.3,162.3,0,0,0-7.63-25.26A87.13,87.13,0,0,0,3633,738.59a62.93,62.93,0,0,0-19.66-16.27q-11.7-6.27-28-6.27a79.31,79.31,0,0,0-10,.84,82.25,82.25,0,0,0-13.73,3.22,106.15,106.15,0,0,0-15.77,6.61,99.92,99.92,0,0,0-16.44,10.68l-4.06-6.44A84.25,84.25,0,0,1,3543,718.08a131.4,131.4,0,0,1,20-9,115.37,115.37,0,0,1,19.5-5.09,99.87,99.87,0,0,1,15.76-1.53q26.78,0,43.56,10.34a72.49,72.49,0,0,1,26.1,27.46,116.28,116.28,0,0,1,12.55,39,308.8,308.8,0,0,1,3.22,44.91,353.31,353.31,0,0,1-5.43,61.53,404.92,404.92,0,0,1-14.91,58.82,356.29,356.29,0,0,1-22.38,52.54,234.56,234.56,0,0,1-28,42.21q-15.09,17.79-31.53,28T3548.74,1077.41Zm99.32-164.75a32.23,32.23,0,0,0-13.56-17.46,39.55,39.55,0,0,0-21.69-6.27,45.12,45.12,0,0,0-23,6.1,74.85,74.85,0,0,0-19.33,16.45,115.93,115.93,0,0,0-15.59,24.06,205,205,0,0,0-11.53,28.65,200.93,200.93,0,0,0-7.12,30.34,193.44,193.44,0,0,0-2.37,29.32q0,17.64,7.12,28.31t22.37,10.68q10.84,0,21.53-8a94,94,0,0,0,20-21,206.41,206.41,0,0,0,17.29-29.32,289.74,289.74,0,0,0,13.73-33,268.89,268.89,0,0,0,9-32.21A132.74,132.74,0,0,0,3648.06,912.66Z"/><path class="cls-1" d="M3758.57,873.68l-29.83,111.53q-7.45,27.45-7.46,44.07,0,10.85,3.73,17.62c2.49,4.53,5.77,6.78,9.83,6.78q10.51,0,33.57-25.08l5.42,4.74-3.39,3.73q-19.32,22.73-28.48,30.68t-16.95,8q-10.5,0-17.79-10.68t-7.29-26.61q0-10.17,4.07-32.2l21.35-118.65Zm9.84-132.89q8.81,0,14.23,5.43t5.43,14.23a19.34,19.34,0,0,1-5.77,14.24,18.89,18.89,0,0,1-13.89,5.76,19.11,19.11,0,0,1-13.9-6.1q-6.11-6.11-6.11-13.9a18.94,18.94,0,0,1,5.77-13.9A19.33,19.33,0,0,1,3768.41,740.79Z"/><path class="cls-1" d="M3957.9,879.44q-5.42,18.64-11.69,39.66t-12.71,45.77q-12.9,49.83-12.89,64.75,0,10.85,3.73,17.45t9.83,6.61q10.51,0,33.56-25.08l5.43,4.74-3.39,3.73q-9.84,11.54-16.78,19.16a142.54,142.54,0,0,1-11.7,11.69q-9.49,7.8-16.95,7.8-10.5,0-17.79-10.51t-7.29-26.78q0-10.85,4.07-32.2l3.72-17.29a39.84,39.84,0,0,1-13.39,4.74c-5.08.91-9.89,1.59-14.4,2q-2.39,1.69-6.78,8.3t-10.85,15.59q-6.45,9-14.24,18.82a170.67,170.67,0,0,1-16.61,18.14,99.09,99.09,0,0,1-18.14,13.72,37,37,0,0,1-18.81,5.43,62.08,62.08,0,0,1-6.95-.34,23.9,23.9,0,0,1-5.59-1.36l8.13-27.46a54.51,54.51,0,0,0,8.48,1.53,88.6,88.6,0,0,0,9.49.51,38.71,38.71,0,0,0,18.64-4.75,61.82,61.82,0,0,0,15.94-12.37,77.73,77.73,0,0,0,12.2-17.46,85,85,0,0,0,7.46-20.34,50.18,50.18,0,0,1-18-7.29A48.08,48.08,0,0,1,3832,975.21a39.65,39.65,0,0,1-6.44-13.22,51.34,51.34,0,0,1-1.87-13.39q0-19,7.29-31.7a61.85,61.85,0,0,1,19-20.68,79.93,79.93,0,0,1,26.44-11.53A139.48,139.48,0,0,1,3906,880.8ZM3926.38,891h-15.26a70.38,70.38,0,0,0-26.61,4.74A56.77,56.77,0,0,0,3865,908.42a54.63,54.63,0,0,0-11.87,18.31,58.35,58.35,0,0,0-4.06,21.53,53.48,53.48,0,0,0,1.86,14.23,32.58,32.58,0,0,0,6.1,12,29.52,29.52,0,0,0,10.85,8.3q6.61,3.06,16.44,3.06,4.41,0,11.87-.68a30,30,0,0,0,12.2-3.39Z"/><path class="cls-1" d="M4129.43,924.53q0-9.15,6.11-18a60.09,60.09,0,0,1,16.61-15.76,95.79,95.79,0,0,1,24.91-11.36,107.07,107.07,0,0,1,31.36-4.41q13.89,0,23.05,4.75a40.32,40.32,0,0,1,14.41,12,44.57,44.57,0,0,1,7.29,15.94,70.85,70.85,0,0,1,2,16.1q0,20.68-7.46,36.95a109,109,0,0,1-19.66,29.32,164.19,164.19,0,0,1-28,23.73q-15.77,10.68-32,20.17a37,37,0,0,1,19.15,8.65,57.27,57.27,0,0,1,13.22,17.12,82.47,82.47,0,0,1,7.63,22.54,132.14,132.14,0,0,1,2.37,24.92q4.41-.69,8.31-1c2.59-.23,5.37-.46,8.31-.68s6.15-.34,9.66-.34h12.71l-1.7,7.46q-6.78,0-16.95.68a193,193,0,0,0-20,2.37,244.76,244.76,0,0,1-12,49.32,229.65,229.65,0,0,1-19.83,41.7,193.51,193.51,0,0,1-25.6,33.39,183.3,183.3,0,0,1-28.81,24.58,126,126,0,0,1-29.49,15.08,85,85,0,0,1-27.63,5.09q-22,0-33.39-11.53t-11.36-29.83a84.22,84.22,0,0,1,14.24-47.12,150.55,150.55,0,0,1,37-38.47,236,236,0,0,1,50.68-28.31,295.05,295.05,0,0,1,55.42-16.95,161.8,161.8,0,0,0-1.86-24.41,70.84,70.84,0,0,0-6.95-22,43.39,43.39,0,0,0-14.24-16.11q-9.15-6.25-23.73-7.28v-2.72a162.55,162.55,0,0,0,15.43-6.27,150.14,150.14,0,0,0,19.49-10.84,165.42,165.42,0,0,0,20.34-15.77,117.43,117.43,0,0,0,18.31-21A112.11,112.11,0,0,0,4220,960a94.63,94.63,0,0,0,5.08-31.69q0-23.06-7.12-32.89t-22.71-9.83a42,42,0,0,0-19.66,4.58,50.55,50.55,0,0,0-15.6,12.71,69.23,69.23,0,0,0-11.18,19.49,94.9,94.9,0,0,0-5.77,24.92q-4.74-1-9.15-7T4129.43,924.53Zm49.84,197a230.63,230.63,0,0,0-51.7,16.78,183.11,183.11,0,0,0-43.22,27.46,130.4,130.4,0,0,0-29.66,36.27,89.41,89.41,0,0,0-11,43.57q0,15.93,8.81,23.89a29.87,29.87,0,0,0,20.68,8q18.65,0,36.78-11.86t32.89-32.72q14.74-20.85,24.57-49.32A232.74,232.74,0,0,0,4179.27,1121.48Z"/><path class="cls-1" d="M4441,887.58l32.21-13.9-29.5,125.76q8.47-15.26,17.8-29.66t19-27.12q9.68-12.7,19-23.39a233.8,233.8,0,0,1,17.8-18.47q7.78-7.12,14.06-12a72.81,72.81,0,0,1,12.88-8.13,58.73,58.73,0,0,1,14.24-4.75,139,139,0,0,1,18.14-2.2l-6.44,31.52a52,52,0,0,0-13.22-3.05c-3.62-.22-6.78-.34-9.49-.34a35.85,35.85,0,0,0-14.41,3.56,77,77,0,0,0-16.27,10.17,130.49,130.49,0,0,0-16.28,15.6,138.43,138.43,0,0,0-14.74,20.17q5.41,13.22,12.37,30.85t14.58,33.56a210.37,210.37,0,0,0,15.08,27q7.45,11,13.9,11,14.91,0,34.58-20.67l2.71-3.06,4.41,5.09q-34.24,41.36-49.83,41.36a28,28,0,0,1-10.51-2,22.52,22.52,0,0,1-9.16-7.12,84.2,84.2,0,0,1-10.84-17q-5.09-10.17-10.51-22.71T4481.31,1001q-5.76-14.06-12.54-29a299.86,299.86,0,0,0-24.24,41.69q-11.35,23.4-17.12,55.26l-21.69,6.1Z"/><path class="cls-1" d="M4581.65,1206.57l64.07-319,32.55-13.9L4655.89,971q25.09-50.51,47.29-72.72t48.65-22.2q20.34,0,32.2,14.92t11.87,41q0,26.44-10.68,54.24a173.12,173.12,0,0,1-30,50.51q-34.92,42-76.95,42-26.44,0-43.39-13.9L4600,1206.57ZM4640,1042.5q14.23,27.8,40,27.79,37.29,0,65.09-60.68,22.71-48.81,22.71-82,0-18-6.78-27.8T4741.66,890q-20.34,0-42.71,26.78a277.32,277.32,0,0,0-36.28,59q-5.76,12.88-10.67,27.45t-9.33,29.84Z"/><path class="cls-1" d="M4892.85,873.68,4860,1004.87q-4.41,17.63-4.41,29.83,0,11.86,7.46,19t19.32,7.12q28.82,0,60-47.12l1.36-2q.68-3.39,1-5.42l21.35-118.65,33.23-13.9-29.84,111.53q-7.46,27.45-7.45,44.07,0,10.85,3.73,17.62c2.48,4.53,5.76,6.78,9.83,6.78q10.5,0,33.56-25.08l5.42,4.74-3.39,3.73q-19.32,22.73-28.48,30.68t-16.94,8q-10.52,0-17.8-10.68t-7.29-26.61q0-5.09.34-9.49-35.27,46.77-69.83,46.78-17.3,0-27.63-10t-10.34-26.61q0-12.88,3.73-31.53l23.05-120Z"/><path class="cls-1" d="M5218.63,878.42q-5.43,18.66-12,40.17t-13.05,46.28q-6.45,24.75-10.51,40.85t-4.07,23.9q0,10.85,3.73,17.45t9.83,6.61q10.51,0,33.56-25.08l5.43,4.74-3.39,3.73q-9.84,11.54-16.78,19.16a142.54,142.54,0,0,1-11.7,11.69q-9.49,7.8-17,7.8-10.51,0-17.79-10.51t-7.29-26.78q0-10.85,4.07-32.2l23-115.26-21.36,4.4a26.76,26.76,0,0,0-12.2,5.94q-5.43,4.58-11.87,15.59a289.08,289.08,0,0,0-14.75,30.34q-8.31,19.32-20.84,49.83-4.41,10.51-10.68,23.56a164.24,164.24,0,0,1-14.41,24.41,96.6,96.6,0,0,1-17.8,19.15q-9.66,7.8-20.17,7.8c-2.25,0-4.74-.11-7.45-.34a42.5,42.5,0,0,1-7.8-1.36l9.49-36.27a24.72,24.72,0,0,0,16.61,5.77q10.5,0,21.19-9.84t20.51-32.2q5.76-12.88,11.52-28.14t10.51-29.15q4.74-13.89,7.63-24.92t3.22-15.76l-36.27,2.71,7.45-11.18Z"/><path class="cls-1" d="M5441.68,871.64l-31.86,124.08q-5.08,20.34-5.09,31.86a34,34,0,0,0,4.41,17.63q4.41,7.45,10.85,7.46,9.83,0,32.54-24.07l4.75,4.74-3.73,4.41q-18,20.68-27.63,29t-16.78,8.31q-10.85,0-18.81-11.36a44.49,44.49,0,0,1-8-26.27q0-10.85,8.14-49.15l2.71-12.88a251.79,251.79,0,0,1-33.56,55.93q-35.26,44.75-67.46,44.75-19.32,0-30.51-13.9t-11.19-37.29q0-31.86,18.14-66.78t45.08-57.46q27-22.54,52.38-22.55,26.77,0,40,19.67l3.73-12.89Zm-39,43.39q-4.06-12.87-13.73-20.17a35.94,35.94,0,0,0-22.2-7.28q-14.93,0-31.53,13.73t-30.51,38.13a221.76,221.76,0,0,0-18.14,42.72q-7.29,23.39-7.28,38.64,0,17.29,6.61,27.12t18.81,9.83q15.59,0,32.54-14.57t33.56-41.7a156.84,156.84,0,0,0,15.94-31.19q5.76-15.59,12.88-43.39Z"/><path class="cls-1" d="M5691.86,886.56l36.61-11.19-26.78,105.77q-5.08,20-6.95,31.36a115.45,115.45,0,0,0-1.86,16.78q0,10.85,3.73,17.45t9.83,6.62q10.5,0,33.56-25.09l5.42,4.75-3.39,3.72q-9.82,11.54-16.78,19.16a141.11,141.11,0,0,1-11.69,11.69q-9.5,7.8-17,7.8-10.51,0-17.8-10.51t-7.29-26.78a156.51,156.51,0,0,1,2.21-22.2q2.19-14.42,5.76-32.72t7.63-39q4.06-20.67,7.79-41L5592.54,1072H5582l-12.21-174.24q-12.89,46.1-24.4,79.15T5522.87,1031q-11,21-21.52,31t-21,10q-3.39,0-8.65-.34a45.22,45.22,0,0,1-9-1.36l9.49-34.23a24.6,24.6,0,0,0,9.33,4.23,45.42,45.42,0,0,0,11.35,1.53,18.27,18.27,0,0,0,12-4.75,57.54,57.54,0,0,0,10.68-12.54,126.94,126.94,0,0,0,9.66-18.3q4.58-10.51,8.3-22,8.82-27.12,12.21-45.76t3.39-31.53c0-2.48-.12-5.2-.34-8.14a61,61,0,0,0-1.7-9.83l46.78-13.9,9.16,162Z"/><path class="cls-1" d="M5832.88,873.68,5800,1004.87q-4.41,17.63-4.41,29.83,0,11.86,7.46,19t19.33,7.12q28.8,0,60-47.12l1.35-2q.68-3.39,1-5.42l21.36-118.65,33.22-13.9L5909.5,985.21q-7.47,27.45-7.46,44.07,0,10.85,3.73,17.62c2.48,4.53,5.76,6.78,9.83,6.78q10.5,0,33.56-25.08l5.42,4.74-3.39,3.73q-19.32,22.73-28.47,30.68t-16.95,8q-10.52,0-17.8-10.68t-7.29-26.61q0-5.09.34-9.49-35.27,46.77-69.83,46.78-17.29,0-27.63-10t-10.34-26.61q0-12.88,3.73-31.53l23.05-120Z"/></g></g></svg>